<svg width="16" height="16" viewBox="0 0 11 10" fill="none" xmlns="http://www.w3.org/2000/svg">
<path d="M5.33325 10C2.57175 10 0.333252 7.7615 0.333252 5C0.333252 2.2385 2.57175 0 5.33325 0C8.09475 0 10.3333 2.2385 10.3333 5C10.3333 7.7615 8.09475 10 5.33325 10ZM5.33325 9C6.39412 9 7.41153 8.57857 8.16168 7.82843C8.91183 7.07828 9.33325 6.06087 9.33325 5C9.33325 3.93913 8.91183 2.92172 8.16168 2.17157C7.41153 1.42143 6.39412 1 5.33325 1C4.27239 1 3.25497 1.42143 2.50482 2.17157C1.75468 2.92172 1.33325 3.93913 1.33325 5C1.33325 6.06087 1.75468 7.07828 2.50482 7.82843C3.25497 8.57857 4.27239 9 5.33325 9ZM4.83325 6.5H5.83325V7.5H4.83325V6.5ZM4.83325 2.5H5.83325V5.5H4.83325V2.5Z" fill="#008b40"/>
</svg>
