<svg width="16" height="16" viewBox="0 0 11 10" fill="none" xmlns="http://www.w3.org/2000/svg">
<path d="M5.33337 10C2.57187 10 0.333374 7.7615 0.333374 5C0.333374 2.2385 2.57187 0 5.33337 0C8.09487 0 10.3334 2.2385 10.3334 5C10.3334 7.7615 8.09487 10 5.33337 10ZM5.33337 9C6.39424 9 7.41166 8.57857 8.1618 7.82843C8.91195 7.07828 9.33337 6.06087 9.33337 5C9.33337 3.93913 8.91195 2.92172 8.1618 2.17157C7.41166 1.42143 6.39424 1 5.33337 1C4.27251 1 3.25509 1.42143 2.50495 2.17157C1.7548 2.92172 1.33337 3.93913 1.33337 5C1.33337 6.06087 1.7548 7.07828 2.50495 7.82843C3.25509 8.57857 4.27251 9 5.33337 9ZM4.83487 7L2.71337 4.8785L3.42037 4.1715L4.83487 5.586L7.66287 2.7575L8.37037 3.4645L4.83487 7Z" fill="#becd26"/>
</svg>
